<svg xmlns="http://www.w3.org/2000/svg" viewBox="0 0 126 56" role="img" aria-label="Державний знак України та знак НСЗУ">
  <rect x="1" y="3" width="49" height="49" rx="11" fill="#ffffff" stroke="#d6e1ec"/>
  <path d="M25.5 12v29M25.5 12c-1.3 5.1-5.8 6.1-6.6 11.7-.7 4.7 2 9.3 6.6 13.7M25.5 12c1.3 5.1 5.8 6.1 6.6 11.7.7 4.7-2 9.3-6.6 13.7M19 19.1v10.1c0 4.8 2.7 9.2 6.5 12.1M32 19.1v10.1c0 4.8-2.7 9.2-6.5 12.1M22.2 27.5h6.6M21.2 34.1h8.6" fill="none" stroke="#16263b" stroke-width="1.6" stroke-linejoin="round" stroke-linecap="round"/>
  <path d="M92 7.5 111 13v14.2c0 11.1-7.8 18.8-19 22.3-11.2-3.5-19-11.2-19-22.3V13z" fill="#1479c8"/>
  <path d="M88.2 18.5h7.6v7.1h7.1v7.6h-7.1v7.1h-7.6v-7.1h-7.1v-7.6h7.1z" fill="#fff"/>
</svg>
